<svg xmlns="http://www.w3.org/2000/svg" xmlns:xlink="http://www.w3.org/1999/xlink" width="87" height="86" viewBox="0 0 87 86">
    <defs>
        <path id="a" d="M43.184 0C19.36 0 .046 19.252.046 43S19.36 86 43.184 86C67.008 86 86.32 66.748 86.32 43S67.008 0 43.184 0z"/>
        <linearGradient id="b" x1="50%" x2="50%" y1="22.954%" y2="75.504%">
            <stop offset="0%" stop-color="#D3E2FB"/>
            <stop offset="100%" stop-color="#EFF4FF"/>
        </linearGradient>
    </defs>
    <g fill="none" fill-rule="evenodd">
        <g>
            <mask id="c" fill="#fff">
                <use xlink:href="#a"/>
            </mask>
            <path fill="url(#b)" d="M43.184 0C19.36 0 .046 19.252.046 43S19.36 86 43.184 86C67.008 86 86.32 66.748 86.32 43S67.008 0 43.184 0z" mask="url(#c)"/>
        </g>
        <path fill="#EFEFEF" d="M86.275 78.089c0 1.521-19.314 2.754-43.138 2.754C19.313 80.843 0 79.61 0 78.09s19.313-2.754 43.137-2.754 43.138 1.233 43.138 2.754"/>
        <path fill="#EAC800" d="M40.229 13.161l1.982-.331s-1.777 18.804 3.836 25.016c5.72 6.331 10.345 7.38 11.138 8.915.793 1.534.133 6.973-8.579 6.519-8.711-.455-29.478-11.364-8.377-40.119"/>
        <path fill="#FFDF00" d="M42.211 12.83S41.19 29.943 48.03 37.515c5.72 6.331 10.345 7.38 11.137 8.915.793 1.534.134 6.973-8.578 6.518-8.711-.454-29.478-11.363-8.378-40.118"/>
        <path fill="#005696" d="M49.32 42.21s-1.319-8.253.804-12.131c1.439-2.628 3.796-3.823 8.639-4.632 2.784-.465 3.762.903 5.865 2.964l6.452-1.078-3.114 5.716s1.618 4.548-2.282 7.844c0 0 5.665 11.713-9.815 21.1-15.046 9.126-29.008 1.635-33.072-5.622-2.454-4.383-7.427-4.002-10.98-3.014-.324.09-1.818 1.185-1.818 1.185l-2.23.373 4.6-9.838-3.661-4.867 2.23-.373s3.625 2.226 4.662 2.509c9.271 2.537 25.54 5.735 33.72-.136"/>
        <path fill="#0064D2" d="M51.552 41.837s-1.478-8.343.803-12.131c2.435-4.045 9.398-6.671 14.504-1.668l6.452-1.077-3.746 6.252s1.302 4.11-1.65 7.308c0 0 5.665 11.712-9.815 21.1-15.047 9.125-29.009 1.634-33.072-5.622C20.965 48.742 10 54.542 10 54.542l4.6-9.838-3.66-4.867s28.773 10.497 40.613 2"/>
        <path fill="#0064D2" d="M22.887 19.098l1.923-.706s5.735 17.68 13.184 21.107c7.76 3.572 12.426 2.72 13.76 3.818 1.337 1.099 2.88 6.356-5.305 9.361-8.186 3.005-31.586 1.137-23.562-33.58"/>
        <path fill="#0D98FF" d="M24.81 18.393s5.827 16.13 15.107 20.4c7.76 3.572 12.426 2.72 13.761 3.818 1.336 1.099 2.88 6.356-5.306 9.361-8.186 3.005-31.586 1.138-23.562-33.58"/>
        <path fill="#E6E7E8" d="M60.47 30.3a1.774 1.774 0 0 1-1.46 2.042 1.778 1.778 0 0 1-2.048-1.456 1.774 1.774 0 0 1 1.46-2.041 1.778 1.778 0 0 1 2.049 1.455"/>
        <path fill="#EAC800" d="M71.287 67.075c0 6.27-5.099 11.353-11.39 11.353-6.289 0-11.388-5.083-11.388-11.353s5.1-11.353 11.389-11.353c6.29 0 11.389 5.083 11.389 11.353"/>
        <path fill="#FFDF00" d="M73.783 67.075c0 6.27-5.098 11.353-11.389 11.353-6.29 0-11.388-5.083-11.388-11.353s5.098-11.353 11.388-11.353 11.39 5.083 11.39 11.353"/>
        <path fill="#0064D2" d="M63.037 59.875a1.43 1.43 0 0 0-1.432 1.428v6.32H57.32c-.748 0-1.416.544-1.487 1.287a1.43 1.43 0 0 0 1.426 1.567h5.219c1.1 0 1.991-.888 1.991-1.985v-7.189a1.43 1.43 0 0 0-1.432-1.428"/>
        <path fill="#005696" d="M67 55.722H54.17a2.41 2.41 0 0 1-2.413-2.406 2.41 2.41 0 0 1 2.414-2.407h12.828a2.41 2.41 0 0 1 2.415 2.407 2.41 2.41 0 0 1-2.415 2.406"/>
        <path fill="#0D98FF" d="M68.873 55.722H56.044a2.41 2.41 0 0 1-2.414-2.406 2.41 2.41 0 0 1 2.414-2.407h12.829a2.41 2.41 0 0 1 2.414 2.407 2.41 2.41 0 0 1-2.414 2.406"/>
    </g>
</svg>
