<svg xmlns="http://www.w3.org/2000/svg" xmlns:xlink="http://www.w3.org/1999/xlink" width="88" height="88" viewBox="0 0 88 88">
    <defs>
        <path id="a" d="M43.844 0C19.63 0 0 19.7 0 44s19.63 44 43.844 44c24.214 0 43.844-19.7 43.844-44S68.058 0 43.844 0z"/>
        <linearGradient id="b" x1="50%" x2="50%" y1="22.954%" y2="75.504%">
            <stop offset="0%" stop-color="#D3E2FB"/>
            <stop offset="100%" stop-color="#EFF4FF"/>
        </linearGradient>
        <path id="d" d="M.156.157h87.688v5.637H.156z"/>
        <path id="f" d="M0 88h87.844V0H0z"/>
    </defs>
    <g fill="none" fill-rule="evenodd">
        <g>
            <mask id="c" fill="#fff">
                <use xlink:href="#a"/>
            </mask>
            <path fill="url(#b)" d="M43.844 0C19.63 0 0 19.7 0 44s19.63 44 43.844 44c24.214 0 43.844-19.7 43.844-44S68.058 0 43.844 0z" mask="url(#c)"/>
        </g>
        <g>
            <g transform="translate(0 76.726)">
                <mask id="e" fill="#fff">
                    <use xlink:href="#d"/>
                </mask>
                <path fill="#EFEFEF" d="M87.844 2.975c0 1.557-19.63 2.819-43.844 2.819C19.786 5.794.156 4.532.156 2.975S19.786.157 44 .157c24.214 0 43.844 1.261 43.844 2.818" mask="url(#e)"/>
            </g>
            <path fill="#0D98FF" d="M62.762 76.285h-45.21c0-15.939 10.12-28.86 22.605-28.86 12.484 0 22.605 12.921 22.605 28.86"/>
            <path fill="#0D98FF" d="M62.762 20.28h-45.21c0 15.94 10.12 28.86 22.605 28.86 12.484 0 22.605-12.92 22.605-28.86"/>
            <path fill="#007AE8" d="M62.16 69.644c-1.943.348-8.666 1.366-20.902 1.366-14.759 0-17.995-.672-18.438-2.055-.443-1.382.427-9.916 4.54-14.361 6.202-6.702 10.785-5.768 18.283-6.311H34.67C25.3 51.265 18.246 61.709 17.6 74.385c6.28 2.241 42.312 3.244 44.94-2.132a36.11 36.11 0 0 0-.381-2.609M61.822 28.537c-4.133-2.488-32.503-2.7-37.13-1.772-5.158 1.036-.218 14.278-.21 14.308-4.272-5.25-6.93-12.625-6.93-20.793H59.01c1.877.338 3.514.788 3.726 1.351a36.159 36.159 0 0 1-.915 6.906"/>
            <mask id="g" fill="#fff">
                <use xlink:href="#f"/>
            </mask>
            <path fill="#EAC800" d="M16.12 74.385h2.86V22.527h-2.86zM61.332 74.385h2.86V22.527h-2.86z" mask="url(#g)"/>
            <path fill="#0064D2" d="M63.04 17.816H17.166c-2.009 0-3.653 1.65-3.653 3.666v.174c0 2.016 1.644 3.666 3.653 3.666H63.04c2.01 0 3.653-1.65 3.653-3.666v-.174c0-2.017-1.644-3.666-3.653-3.666M63.04 79.735H17.166c-2.009 0-3.653-1.65-3.653-3.666v-.175c0-2.016 1.644-3.666 3.653-3.666H63.04c2.01 0 3.653 1.65 3.653 3.666v.175c0 2.016-1.644 3.666-3.653 3.666" mask="url(#g)"/>
            <path fill="#EAC800" d="M77.435 66.48c-.07 7.407-6.11 13.354-13.49 13.284-7.381-.07-13.307-6.132-13.237-13.538.07-7.407 6.11-13.355 13.49-13.284 7.38.07 13.307 6.132 13.237 13.538" mask="url(#g)"/>
            <path fill="#FFDF00" d="M79.27 66.498c-.071 7.407-6.11 13.354-13.491 13.283-7.38-.07-13.307-6.131-13.237-13.538.07-7.407 6.11-13.354 13.49-13.283 7.381.07 13.307 6.131 13.237 13.538" mask="url(#g)"/>
            <path fill="#0064D2" d="M59.047 68.98c-.865.002-1.57-.885-1.572-1.981-.003-1.097.697-1.988 1.562-1.99.866-.002 1.57.885 1.573 1.982.003 1.096-.697 1.987-1.563 1.99m16.437-3.206l-13.165.034c-.41-1.812-1.727-3.137-3.288-3.133-1.883.005-3.404 1.942-3.398 4.327.006 2.386 1.537 4.315 3.42 4.31 1.56-.004 2.872-1.335 3.272-3.149l7.618-.02.006 2.392c.001.445.362.805.805.804l.351-.001a.803.803 0 0 0 .8-.807l-.002-.743a.804.804 0 0 1 .8-.807l.52-.002c.443 0 .803.359.804.803l.002.743a.804.804 0 0 0 .804.803h.352a.804.804 0 0 0 .8-.808l-.007-2.883-.002-.554-.002-.82a.49.49 0 0 0-.49-.49" mask="url(#g)"/>
        </g>
    </g>
</svg>
