<svg xmlns="http://www.w3.org/2000/svg" xmlns:xlink="http://www.w3.org/1999/xlink" width="88" height="88" viewBox="0 0 88 88">
    <defs>
        <path id="a" d="M43.844 0C19.63 0 0 19.7 0 44s19.63 44 43.844 44c24.214 0 43.844-19.7 43.844-44S68.058 0 43.844 0z"/>
        <linearGradient id="b" x1="50%" x2="50%" y1="22.954%" y2="75.504%">
            <stop offset="0%" stop-color="#D3E2FB"/>
            <stop offset="100%" stop-color="#EFF4FF"/>
        </linearGradient>
        <path id="d" d="M0 88h87.844V0H0z"/>
    </defs>
    <g fill="none" fill-rule="evenodd">
        <g>
            <mask id="c" fill="#fff">
                <use xlink:href="#a"/>
            </mask>
            <path fill="url(#b)" d="M43.844 0C19.63 0 0 19.7 0 44s19.63 44 43.844 44c24.214 0 43.844-19.7 43.844-44S68.058 0 43.844 0z" mask="url(#c)"/>
        </g>
        <g>
            <path fill="#EFEFEF" d="M87.844 79.701c0 1.557-19.63 2.819-43.844 2.819C19.786 82.52.156 81.258.156 79.7S19.786 76.883 44 76.883c24.215 0 43.844 1.261 43.844 2.818"/>
            <mask id="e" fill="#fff">
                <use xlink:href="#d"/>
            </mask>
            <path fill="#005696" d="M19.32 78.749h31.102V19.462H19.32z" mask="url(#e)"/>
            <path fill="#0064D2" d="M36.388 78.749H67.49V19.462H36.388z" mask="url(#e)"/>
            <path fill="#E6E7E8" d="M47.01 45.072h-5.228a1.22 1.22 0 0 1-1.217-1.221V31.26a1.22 1.22 0 0 1 1.217-1.22h5.229a1.22 1.22 0 0 1 1.217 1.22v12.59a1.22 1.22 0 0 1-1.217 1.221" mask="url(#e)"/>
            <path fill="#FFDF00" d="M48.839 32.028h-8.886a.351.351 0 0 1-.35-.352v-1.564c0-.194.157-.352.35-.352h8.886c.193 0 .35.158.35.352v1.564a.351.351 0 0 1-.35.352" mask="url(#e)"/>
            <path fill="#E6E7E8" d="M62.106 45.072h-5.23a1.22 1.22 0 0 1-1.217-1.221V31.26a1.22 1.22 0 0 1 1.217-1.22h5.23a1.22 1.22 0 0 1 1.217 1.22v12.59a1.22 1.22 0 0 1-1.217 1.221" mask="url(#e)"/>
            <path fill="#FFDF00" d="M63.934 32.028h-8.886a.351.351 0 0 1-.35-.352v-1.564c0-.194.157-.352.35-.352h8.886a.35.35 0 0 1 .35.352v1.564a.35.35 0 0 1-.35.352M57.329 78.749H47.113a.757.757 0 0 1-.756-.759V61.841c0-.419.339-.759.756-.759H57.33c.418 0 .756.34.756.759v16.15a.757.757 0 0 1-.756.758" mask="url(#e)"/>
            <path fill="#0064D2" d="M51.728 22.435H17.764a.32.32 0 0 1-.319-.32v-4.224a.32.32 0 0 1 .319-.32h33.964a.32.32 0 0 1 .319.32v4.224a.32.32 0 0 1-.319.32" mask="url(#e)"/>
            <path fill="#0D98FF" d="M68.797 22.435H34.832a.32.32 0 0 1-.318-.32v-4.224a.32.32 0 0 1 .318-.32h33.965a.32.32 0 0 1 .319.32v4.224a.32.32 0 0 1-.319.32" mask="url(#e)"/>
            <path fill="#0064D2" d="M51.728 54.247H17.764a.32.32 0 0 1-.319-.32v-2.476a.32.32 0 0 1 .319-.32h33.964a.32.32 0 0 1 .319.32v2.476a.32.32 0 0 1-.319.32" mask="url(#e)"/>
            <path fill="#0D98FF" d="M68.797 54.247H34.832a.32.32 0 0 1-.318-.32v-2.476a.32.32 0 0 1 .318-.32h33.965a.32.32 0 0 1 .319.32v2.476a.32.32 0 0 1-.319.32" mask="url(#e)"/>
            <path fill="#EAC800" d="M83.74 28.088c0 6.819-5.508 12.347-12.302 12.347s-12.303-5.528-12.303-12.347c0-6.818 5.509-12.346 12.303-12.346 6.794 0 12.302 5.528 12.302 12.346" mask="url(#e)"/>
            <path fill="#FFDF00" d="M86.437 28.088c0 6.819-5.508 12.347-12.302 12.347-6.795 0-12.303-5.528-12.303-12.347 0-6.818 5.508-12.346 12.303-12.346 6.794 0 12.302 5.528 12.302 12.346" mask="url(#e)"/>
            <path fill="#0064D2" d="M80.206 24.908a1.543 1.543 0 0 0-2.188 0l-4.842 4.86-2.112-2.12c-.57-.573-1.499-.666-2.122-.15a1.557 1.557 0 0 0-.112 2.299l2.158 2.166.667.67c.84.842 2.202.842 3.042 0l.667-.67 4.842-4.86a1.556 1.556 0 0 0 0-2.195" mask="url(#e)"/>
        </g>
    </g>
</svg>
