<svg xmlns="http://www.w3.org/2000/svg" xmlns:xlink="http://www.w3.org/1999/xlink" width="88" height="88" viewBox="0 0 88 88">
    <defs>
        <path id="a" d="M43.844 0C19.63 0 0 19.7 0 44s19.63 44 43.844 44c24.214 0 43.844-19.7 43.844-44S68.058 0 43.844 0z"/>
        <linearGradient id="b" x1="50%" x2="50%" y1="22.954%" y2="75.504%">
            <stop offset="0%" stop-color="#D3E2FB"/>
            <stop offset="100%" stop-color="#EFF4FF"/>
        </linearGradient>
        <path id="d" d="M.156.157h87.688v5.637H.156z"/>
    </defs>
    <g fill="none" fill-rule="evenodd">
        <g>
            <mask id="c" fill="#fff">
                <use xlink:href="#a"/>
            </mask>
            <path fill="url(#b)" d="M43.844 0C19.63 0 0 19.7 0 44s19.63 44 43.844 44c24.214 0 43.844-19.7 43.844-44S68.058 0 43.844 0z" mask="url(#c)"/>
        </g>
        <g transform="translate(0 76.726)">
            <mask id="e" fill="#fff">
                <use xlink:href="#d"/>
            </mask>
            <path fill="#EFEFEF" d="M87.844 2.975c0 1.557-19.63 2.819-43.844 2.819C19.786 5.794.156 4.532.156 2.975S19.786.157 44 .157c24.214 0 43.844 1.261 43.844 2.818" mask="url(#e)"/>
        </g>
        <path fill="#0D98FF" d="M54.513 63.857c-.898 2.806-3.904 4.354-6.7 3.453-2.795-.902-4.338-3.918-3.44-6.724a.52.52 0 1 1 .991.32c-.723 2.257.519 4.684 2.768 5.41a4.287 4.287 0 0 0 5.39-2.778.52.52 0 1 1 .991.32"/>
        <path fill="#005696" d="M24.427 47.128c-10.646-12.317 1.952-25.612 1.952-25.612l-4.485-.32a23.605 23.605 0 0 0-8.66 4.424C3.021 33.852 1.392 48.834 9.595 59.083c6.05 7.56 19.499 10.76 28.275 8.446 3.124-.824 2.389-2.632 5.07-4.793.378-.305 10.657-7.212 10.657-7.212l-4.485-.32c-8.816 2.388-18.319-.71-24.685-8.076"/>
        <path fill="#0064D2" d="M28.912 47.448c-6.085-7.602-6.758-17.808-2.533-25.932a23.607 23.607 0 0 0-8.66 4.423c-10.213 8.233-11.842 23.215-3.64 33.464 8.204 10.25 23.133 11.885 33.346 3.653a23.702 23.702 0 0 0 6.172-7.532c-8.816 2.387-18.6-.474-24.685-8.076"/>
        <path fill="#EAC800" d="M52.15 64.677a1.505 1.505 0 0 1 .6-2.037 1.494 1.494 0 0 1 2.03.602c.394.73.126 1.64-.6 2.037a1.494 1.494 0 0 1-2.03-.602m1.978 9.031l18.344 6.502a2.61 2.61 0 0 0 3.333-1.598L80.1 66.406a2.624 2.624 0 0 0-1.593-3.344l-17.446-6.958s-2.36.272-3.01.627l-6.399 3.496a4.227 4.227 0 0 0-1.865 5.343l2.803 6.683c.285.681.843 1.21 1.538 1.455"/>
        <path fill="#FFDF00" d="M53.513 64.347a1.505 1.505 0 0 1 .6-2.036 1.494 1.494 0 0 1 2.03.602c.394.729.125 1.64-.6 2.037a1.494 1.494 0 0 1-2.03-.603m1.977 9.032l18.345 6.502a2.61 2.61 0 0 0 3.332-1.598l4.296-12.206a2.624 2.624 0 0 0-1.593-3.345l-18.337-6.499a2.604 2.604 0 0 0-2.119.17l-6.399 3.495a4.227 4.227 0 0 0-1.865 5.343l2.803 6.683c.285.681.843 1.21 1.537 1.455"/>
        <path fill="#0064D2" d="M58.146 67.983l1.688-4.867c.153-.442.458-.615.845-.48l2.762.965c.274.096.414.424.303.747-.106.304-.419.474-.693.378l-2.22-.776-.464 1.337 2.164.755c.275.096.411.433.306.738-.109.313-.422.483-.696.387l-2.164-.756-.684 1.973c-.122.35-.477.566-.792.456-.324-.113-.476-.507-.355-.857M64.853 67.257l1.204.42c.46.16.922-.05 1.101-.566.18-.516-.053-.97-.513-1.13l-1.203-.42-.589 1.696zm2.251 3.431a.743.743 0 0 1-.03.454c-.11.314-.457.533-.764.426a.61.61 0 0 1-.38-.443l-.522-2.414-.944-.33-.56 1.613c-.121.35-.477.567-.792.457-.323-.113-.476-.507-.354-.857l1.687-4.867c.154-.442.458-.615.845-.48l1.914.669c1.123.392 1.518 1.47 1.122 2.613-.342.986-1.033 1.386-1.643 1.42l.421 1.739zM67.988 71.297l1.65-4.756c.153-.443.457-.616.845-.48l2.762.964c.275.096.414.424.302.747-.105.304-.417.474-.692.378l-2.22-.776-.464 1.337 2.164.755c.275.096.411.434.306.738-.109.313-.421.483-.696.387l-2.164-.756-.496 1.43 2.221.774c.275.096.412.434.306.738-.109.313-.424.492-.699.396l-2.762-.964c-.387-.136-.52-.46-.363-.912M72.697 72.94l1.649-4.755c.153-.442.458-.615.845-.48l2.762.965c.275.095.415.424.303.746-.105.304-.418.474-.693.378l-2.22-.776-.464 1.337 2.164.756c.275.096.411.433.306.737-.108.313-.421.483-.696.387l-2.164-.755-.495 1.428 2.22.776c.275.096.412.433.306.737-.109.313-.424.492-.699.396l-2.762-.964c-.387-.135-.519-.46-.362-.912M53.513 64.347a1.505 1.505 0 0 1 .6-2.036 1.494 1.494 0 0 1 2.03.602c.394.729.125 1.64-.6 2.037a1.494 1.494 0 0 1-2.03-.603m-.929.507a2.549 2.549 0 0 0 3.463 1.027 2.566 2.566 0 0 0 1.023-3.474 2.548 2.548 0 0 0-3.462-1.028 2.567 2.567 0 0 0-1.024 3.475"/>
        <path fill="#0D98FF" d="M54.513 63.857a.52.52 0 1 1-.99-.32c.723-2.257-.519-4.683-2.768-5.409a4.286 4.286 0 0 0-5.39 2.778.52.52 0 1 1-.992-.32c.9-2.805 3.905-4.354 6.7-3.452 2.796.902 4.34 3.918 3.44 6.723"/>
        <path fill="#0064D2" d="M34.555 45.568c.036-.462.221-.86.503-1.174l8.68-10.07-6.651-.517c-.87-.068-1.556-.845-1.489-1.718.07-.899.867-1.56 1.737-1.492l9.568.746a2.02 2.02 0 0 1 1.864 2.186c-.033.436-.22.86-.475 1.15L39.61 44.775l6.805.53c.87.068 1.556.845 1.488 1.718a1.628 1.628 0 0 1-1.737 1.492l-9.747-.76a2.036 2.036 0 0 1-1.864-2.186"/>
        <path fill="#0D98FF" d="M36.18 45.568c.037-.462.222-.86.503-1.174l8.681-10.07-6.652-.517c-.87-.068-1.556-.845-1.488-1.718.07-.899.867-1.56 1.737-1.492l9.568.746a2.02 2.02 0 0 1 1.864 2.186c-.033.436-.221.86-.475 1.15l-8.683 10.095 6.805.53c.87.068 1.557.845 1.489 1.718a1.628 1.628 0 0 1-1.737 1.492l-9.747-.76a2.036 2.036 0 0 1-1.864-2.186"/>
        <path fill="#0064D2" d="M54.56 39.527c-.03-.42.082-.804.293-1.124l6.44-10.226-6.046.439c-.79.058-1.513-.547-1.57-1.34a1.48 1.48 0 0 1 1.36-1.577l8.696-.63a1.833 1.833 0 0 1 1.97 1.71c.028.396-.083.803-.272 1.098l-6.437 10.249 6.185-.449c.79-.058 1.512.547 1.57 1.34a1.482 1.482 0 0 1-1.36 1.577l-8.86.643a1.848 1.848 0 0 1-1.969-1.71"/>
        <path fill="#0D98FF" d="M55.954 39.527c-.03-.42.082-.804.293-1.124l6.439-10.226-6.046.439c-.79.058-1.512-.547-1.569-1.34a1.48 1.48 0 0 1 1.359-1.577l8.696-.63a1.833 1.833 0 0 1 1.97 1.71c.029.396-.083.803-.271 1.098l-6.438 10.249 6.185-.449c.791-.058 1.512.547 1.57 1.34a1.481 1.481 0 0 1-1.36 1.577l-8.859.643a1.848 1.848 0 0 1-1.97-1.71"/>
        <path fill="#0064D2" d="M38.08 20.884c.047-.352.205-.649.435-.877l7.072-7.32-5.063-.686c-.663-.09-1.154-.713-1.065-1.378a1.247 1.247 0 0 1 1.393-1.065l7.284.987a1.547 1.547 0 0 1 1.33 1.752 1.56 1.56 0 0 1-.413.86l-7.075 7.34 5.18.701c.662.09 1.154.714 1.064 1.378a1.247 1.247 0 0 1-1.392 1.065l-7.42-1.005a1.56 1.56 0 0 1-1.33-1.752"/>
        <path fill="#0D98FF" d="M39.705 20.884c.047-.352.206-.649.435-.877l7.072-7.32-5.063-.686c-.662-.09-1.153-.713-1.064-1.378a1.246 1.246 0 0 1 1.393-1.065l7.283.987a1.548 1.548 0 0 1 1.33 1.752 1.563 1.563 0 0 1-.413.86l-7.074 7.34 5.18.701c.662.09 1.153.714 1.064 1.378a1.246 1.246 0 0 1-1.393 1.065l-7.42-1.005a1.56 1.56 0 0 1-1.33-1.752"/>
    </g>
</svg>
