<svg xmlns="http://www.w3.org/2000/svg" xmlns:xlink="http://www.w3.org/1999/xlink" width="88" height="88" viewBox="0 0 88 88">
    <defs>
        <path id="a" d="M43.844 0C19.63 0 0 19.7 0 44s19.63 44 43.844 44c24.214 0 43.844-19.7 43.844-44S68.058 0 43.844 0z"/>
        <linearGradient id="b" x1="50%" x2="50%" y1="22.954%" y2="75.504%">
            <stop offset="0%" stop-color="#D3E2FB"/>
            <stop offset="100%" stop-color="#EFF4FF"/>
        </linearGradient>
        <path id="d" d="M.156.157h87.688v5.637H.156z"/>
    </defs>
    <g fill="none" fill-rule="evenodd">
        <g>
            <mask id="c" fill="#fff">
                <use xlink:href="#a"/>
            </mask>
            <path fill="url(#b)" d="M43.844 0C19.63 0 0 19.7 0 44s19.63 44 43.844 44c24.214 0 43.844-19.7 43.844-44S68.058 0 43.844 0z" mask="url(#c)"/>
        </g>
        <g transform="translate(0 76.726)">
            <mask id="e" fill="#fff">
                <use xlink:href="#d"/>
            </mask>
            <path fill="#EFEFEF" d="M87.844 2.975c0 1.557-19.63 2.819-43.844 2.819C19.785 5.794.156 4.532.156 2.975S19.786.157 44 .157c24.214 0 43.844 1.261 43.844 2.818" mask="url(#e)"/>
        </g>
        <path fill="#005696" d="M10.887 69.505l14.57 1.71a3.21 3.21 0 0 0 3.558-2.824l3.13-26.861a3.217 3.217 0 0 0-2.814-3.571l-14.57-1.71a3.21 3.21 0 0 0-3.558 2.824l-3.13 26.862a3.216 3.216 0 0 0 2.814 3.57"/>
        <path fill="#EAC800" d="M28.99 43.945l9.605-1.19c.663-.082 4.664.467 5.264.77l8.795 5.713c1.358.688 1.935 2.642 1.284 4.354l1.673-.281c-.378.994.256 2.586-.545 2.848-.481.158-4.014-.453-4.505-.64l-8.042-3.07c-1.191-.454-2.503-.344-3.686.31l-.394.218c-.982.543-1.05 2.224-.113 2.746l7.229 4.017a6.972 6.972 0 0 0 4.517.805l18.201-1.71c.52-.048 4.344.431 4.764.722.512.355-2.416.594-2.219 1.32.435 1.605-.247 3.424-1.554 4.14L57.231 71.61a7.77 7.77 0 0 1-2.99.94l-4.994 1.314c-1.074.103-5.415-.603-6.397-1.067l-16.226-7.66 2.365-21.192z"/>
        <path fill="#FFDF00" d="M32.628 44.463l9.606-1.19a3.319 3.319 0 0 1 1.921.337l12.138 6.146c1.358.687 1.934 2.641 1.284 4.354-.605 1.591-2.068 2.426-3.378 1.926l-8.042-3.07c-1.19-.454-2.502-.344-3.686.31l-.394.218c-.981.544-1.05 2.225-.112 2.746l7.228 4.017a6.973 6.973 0 0 0 4.518.806l18.2-1.71c1.155-.108 2.187.72 2.546 2.042.435 1.604-.248 3.423-1.554 4.139l-12.034 6.594a7.766 7.766 0 0 1-2.99.94l-8.27.794a5.935 5.935 0 0 1-3.12-.547l-16.226-7.66 2.365-21.192z"/>
        <path fill="#0064D2" d="M12.274 69.625l14.57 1.71a3.21 3.21 0 0 0 3.559-2.823l3.129-26.862a3.216 3.216 0 0 0-2.814-3.57l-14.57-1.71a3.21 3.21 0 0 0-3.558 2.823L9.46 66.055a3.216 3.216 0 0 0 2.814 3.57"/>
        <path fill="#E6E7E8" d="M28.801 67.134a2.566 2.566 0 0 1-3.06 1.958 2.576 2.576 0 0 1-1.95-3.07 2.566 2.566 0 0 1 3.06-1.959 2.575 2.575 0 0 1 1.95 3.071"/>
        <path fill="#0064D2" d="M71.31 36.348h-4.565a.618.618 0 0 1-.617-.62v-4.581a.618.618 0 0 0-.617-.62h-2.495a.618.618 0 0 0-.617.62v4.581c0 .342-.276.62-.616.62h-4.566a.618.618 0 0 0-.617.619v2.503c0 .342.276.619.617.619h4.566c.34 0 .616.277.616.62v4.581c0 .342.277.62.617.62h2.495c.34 0 .617-.278.617-.62v-4.582c0-.342.276-.619.617-.619h4.565a.618.618 0 0 0 .617-.62v-2.502a.618.618 0 0 0-.617-.62"/>
        <path fill="#0D98FF" d="M72.355 36.348H67.79a.618.618 0 0 1-.617-.62v-4.581a.618.618 0 0 0-.617-.62H64.06a.618.618 0 0 0-.617.62v4.581c0 .342-.276.62-.616.62h-4.566a.618.618 0 0 0-.617.619v2.503c0 .342.276.619.617.619h4.566c.34 0 .616.277.616.62v4.581c0 .342.277.62.617.62h2.495c.34 0 .617-.278.617-.62v-4.582c0-.342.276-.619.617-.619h4.565c.341 0 .617-.277.617-.62v-2.502a.618.618 0 0 0-.617-.62"/>
        <path fill="#0064D2" d="M71.843 17.669h-3.32a.45.45 0 0 1-.449-.45v-3.333a.45.45 0 0 0-.449-.45h-1.813a.45.45 0 0 0-.45.45v3.332c0 .249-.2.45-.448.45h-3.32a.45.45 0 0 0-.449.45v1.821c0 .249.2.45.448.45h3.321a.45.45 0 0 1 .448.451v3.332c0 .249.202.45.45.45h1.813a.45.45 0 0 0 .45-.45V20.84c0-.249.2-.45.448-.45h3.32a.45.45 0 0 0 .449-.45v-1.821a.45.45 0 0 0-.449-.45"/>
        <path fill="#0D98FF" d="M72.952 17.669H69.63a.45.45 0 0 1-.448-.45v-3.333a.45.45 0 0 0-.45-.45H66.92a.45.45 0 0 0-.45.45v3.332c0 .249-.2.45-.448.45h-3.32a.45.45 0 0 0-.449.45v1.821c0 .249.201.45.449.45h3.32a.45.45 0 0 1 .449.451v3.332c0 .249.201.45.449.45h1.814a.45.45 0 0 0 .449-.45V20.84c0-.249.2-.45.448-.45h3.32a.45.45 0 0 0 .45-.45v-1.821a.45.45 0 0 0-.45-.45"/>
        <path fill="#0064D2" d="M52.664 22.4H47.4a.713.713 0 0 1-.712-.714v-5.282a.712.712 0 0 0-.71-.713h-2.876a.713.713 0 0 0-.712.713v5.282a.713.713 0 0 1-.71.714h-5.264a.713.713 0 0 0-.711.714v2.885c0 .394.318.714.711.714h5.263c.393 0 .711.32.711.714v5.281c0 .395.319.714.712.714h2.875c.393 0 .711-.32.711-.714v-5.281c0-.394.319-.714.712-.714h5.263c.393 0 .71-.32.71-.714v-2.885a.713.713 0 0 0-.71-.714"/>
        <path fill="#0D98FF" d="M53.868 22.4h-5.263a.713.713 0 0 1-.711-.714v-5.282a.712.712 0 0 0-.711-.713h-2.875a.713.713 0 0 0-.712.713v5.282a.713.713 0 0 1-.711.714h-5.263a.713.713 0 0 0-.711.714v2.885c0 .394.318.714.71.714h5.264c.393 0 .711.32.711.714v5.281c0 .395.319.714.712.714h2.875c.393 0 .711-.32.711-.714v-5.281c0-.394.319-.714.711-.714h5.263c.393 0 .711-.32.711-.714v-2.885a.713.713 0 0 0-.71-.714"/>
    </g>
</svg>
