<svg xmlns="http://www.w3.org/2000/svg" xmlns:xlink="http://www.w3.org/1999/xlink" width="88" height="88" viewBox="0 0 88 88">
    <defs>
        <path id="a" d="M43.844 0C19.63 0 0 19.7 0 44s19.63 44 43.844 44c24.214 0 43.844-19.7 43.844-44S68.058 0 43.844 0z"/>
        <linearGradient id="b" x1="50%" x2="50%" y1="22.954%" y2="75.504%">
            <stop offset="0%" stop-color="#D3E2FB"/>
            <stop offset="100%" stop-color="#EFF4FF"/>
        </linearGradient>
        <path id="d" d="M.04.076h87.688v5.637H.04z"/>
    </defs>
    <g fill="none" fill-rule="evenodd">
        <g>
            <mask id="c" fill="#fff">
                <use xlink:href="#a"/>
            </mask>
            <path fill="url(#b)" d="M43.844 0C19.63 0 0 19.7 0 44s19.63 44 43.844 44c24.214 0 43.844-19.7 43.844-44S68.058 0 43.844 0z" mask="url(#c)"/>
        </g>
        <g transform="translate(0 77.04)">
            <mask id="e" fill="#fff">
                <use xlink:href="#d"/>
            </mask>
            <path fill="#EFEFEF" d="M87.728 2.895c0 1.557-19.63 2.818-43.844 2.818C19.669 5.713.04 4.452.04 2.895.04 1.338 19.67.076 43.884.076c24.214 0 43.844 1.262 43.844 2.819" mask="url(#e)"/>
        </g>
        <path fill="#0D98FF" d="M31.974 58.843c-4.409 2.786-10.254 1.453-13.03-2.972-2.777-4.425-1.448-10.292 2.96-13.077a.921.921 0 0 1 1.274.29.928.928 0 0 1-.29 1.278c-3.546 2.242-4.615 6.961-2.382 10.521 2.234 3.56 6.937 4.633 10.484 2.392a.921.921 0 0 1 1.273.29.928.928 0 0 1-.289 1.278"/>
        <path fill="#005696" d="M24.214 45.811c-2.065 1.291-5.055.218-6.68-2.398-1.623-2.616-1.266-5.783.798-7.074 2.065-1.291 5.056-.217 6.68 2.398 1.624 2.616 1.267 5.783-.798 7.074m34.54-32.075L29.71 32.546c-3.65-3.72-11.111-4.1-14.833-1.772-4.491 2.808-5.268 9.697-1.736 15.386 3.533 5.69 11.43 9.152 17.57 5.394 3.744-2.292 1.848-7.635.13-12.562l18.172-11.364 3.542 5.705c.659 1.061 5.24 1.048 5.24 1.048 1.057-.661.084-2.905-.574-3.965l-1.1-1.772a2.268 2.268 0 0 1 .721-3.117l1.238-.774a2.25 2.25 0 0 1 3.107.724l1.1 1.771c.658 1.06 5.436 1.059 5.436 1.059 1.056-.661-.112-2.916-.77-3.977l-4.27-6.876.206-3.96s-3.49-.161-4.135.242"/>
        <path fill="#0064D2" d="M27.61 45.811c-2.064 1.291-5.055.218-6.68-2.398-1.623-2.616-1.266-5.783.799-7.074 2.065-1.291 5.055-.217 6.68 2.398 1.623 2.616 1.266 5.783-.799 7.074m34.54-32.075L30.748 33.374c-3.65-3.72-8.753-4.928-12.475-2.6-4.491 2.808-5.268 9.697-1.735 15.386 3.532 5.69 10.037 8.025 14.528 5.216 3.722-2.327 4.89-7.457 3.171-12.384l18.172-11.364 3.542 5.705a2.25 2.25 0 0 0 3.106.724l.839-.524a2.267 2.267 0 0 0 .721-3.117l-1.1-1.772a2.268 2.268 0 0 1 .721-3.117l1.239-.774a2.25 2.25 0 0 1 3.106.724l1.1 1.771a2.25 2.25 0 0 0 3.106.724l.838-.525a2.267 2.267 0 0 0 .722-3.117l-4.27-6.876-.821-1.323-1.213-1.953a1.372 1.372 0 0 0-1.895-.442"/>
        <path fill="#EAC800" d="M32.44 58.132a1.641 1.641 0 0 1-1.034 2.074 1.633 1.633 0 0 1-2.068-1.037 1.642 1.642 0 0 1 1.035-2.075 1.633 1.633 0 0 1 2.067 1.038m3.911-6.756l-7.201 3.238a4.614 4.614 0 0 0-2.48 5.66l2.511 7.576a2.86 2.86 0 0 0 1.565 1.72L50.21 78.1a2.849 2.849 0 0 0 3.756-1.477l5.638-12.956A2.866 2.866 0 0 0 58.13 59.9l-19.47-8.534a2.845 2.845 0 0 0-2.309.01"/>
        <path fill="#FFDF00" d="M33.344 57.191a1.641 1.641 0 0 1-1.034 2.075 1.634 1.634 0 0 1-2.068-1.037 1.642 1.642 0 0 1 1.035-2.075 1.633 1.633 0 0 1 2.067 1.037m3.911-6.756l-7.2 3.239a4.614 4.614 0 0 0-2.48 5.66l2.51 7.576c.255.77.824 1.395 1.565 1.72l19.463 8.53a2.849 2.849 0 0 0 3.756-1.478l5.638-12.955a2.866 2.866 0 0 0-1.473-3.769l-19.47-8.533a2.845 2.845 0 0 0-2.309.01"/>
        <path fill="#0D98FF" d="M48.772 61.678c.597.267 1.066.413 1.408.439.34.025.563-.08.668-.317.202-.453-.29-.945-1.476-1.474-1.176-.526-1.865-.562-2.066-.11-.105.237-.036.472.206.708s.662.487 1.26.754zm1.378-3.143c1.077.481 1.794 1.054 2.15 1.717.358.663.356 1.4-.004 2.212-.346.78-.892 1.256-1.638 1.432-.746.176-1.644.029-2.693-.44-2.15-.96-2.863-2.256-2.14-3.884.354-.798.905-1.286 1.652-1.464.747-.178 1.638-.036 2.673.427zm-8.253-.838l7.766 10.354-.754 1.7-7.767-10.355.755-1.7zm-.465 9.39c.598.267 1.067.413 1.408.439.341.025.564-.08.669-.317.2-.453-.291-.945-1.477-1.474-1.176-.526-1.864-.562-2.065-.11-.105.237-.036.472.206.708s.662.487 1.259.754zm1.378-3.143c1.082.483 1.802 1.057 2.158 1.72.357.663.356 1.4-.005 2.212-.346.78-.891 1.257-1.637 1.432-.746.176-1.646.028-2.7-.443-2.15-.96-2.863-2.255-2.14-3.884.354-.798.904-1.286 1.652-1.464.747-.178 1.638-.036 2.672.427z"/>
        <path fill="#0064D2" d="M33.344 57.191a1.641 1.641 0 0 1-1.034 2.075 1.634 1.634 0 0 1-2.068-1.037 1.642 1.642 0 0 1 1.035-2.075 1.633 1.633 0 0 1 2.067 1.037m-4.196 1.403a2.785 2.785 0 0 0 3.527 1.77 2.8 2.8 0 0 0 1.763-3.539 2.786 2.786 0 0 0-3.526-1.77 2.8 2.8 0 0 0-1.764 3.54"/>
        <path fill="#0D98FF" d="M31.974 58.843a.922.922 0 0 1-1.273-.29.929.929 0 0 1 .29-1.278c3.547-2.241 4.616-6.961 2.382-10.521-2.233-3.56-6.936-4.633-10.484-2.392a.921.921 0 0 1-1.273-.29.928.928 0 0 1 .289-1.278c4.41-2.786 10.255-1.453 13.03 2.972 2.777 4.425 1.448 10.291-2.96 13.077"/>
    </g>
</svg>
