 <!DOCTYPE svg PUBLIC "-//W3C//DTD SVG 1.1//EN" "http://www.w3.org/Graphics/SVG/1.1/DTD/svg11.dtd">
<svg id="e7771fe5-65a1-4e3a-a07f-be1a70c853d9" data-name="Layer 1" xmlns="http://www.w3.org/2000/svg" width="865.76" height="682.89" viewBox="0 0 865.76 682.89">
<defs>
<style xmlns="http://www.w3.org/1999/xhtml">*, ::after, ::before { box-sizing: border-box; }
img, svg { vertical-align: middle; }
</style>
<style xmlns="http://www.w3.org/1999/xhtml">*, body, html { -webkit-font-smoothing: antialiased; }
img, svg { max-width: 100%; }
</style>
</defs>
<path d="M774,577.92l-4-9.87,15.68-3.8s6.17,34.44,10.21,43.7h-9s-6-16.66-15.06-25.58Z" fill="#f9b499"/>
<path d="M769.08,618.08h2.31s.33-22.67,3.53-17.38A133.75,133.75,0,0,1,782,618.45a1.36,1.36,0,0,0,1.26,1l27.75,1a.72.72,0,0,0,.44-1.31L795.89,608h-9s-6.07-17.05-15.06-25.58c0,0-4.6.17-4.38,17.89Z" fill="#0071f2" data-primary="true"/>
<path d="M679.61,576.66l4,9.44s-7.25,4.93-14.13,23.78c0,0-.64,2.29-4.81,1.93h-4.95l8.48-34.28Z" fill="#f9b499"/>
<path d="M642.89,623l16.82-11.21h6.59s2.52-.22,3.17-1.93c0,0,5.13-16,14.13-23.78,0,0,4-.48,4.27,15.37L686,621.27h-2.4s.42-20.35-3.21-17.6c0,0-3.3,4-7.59,19.14l-29.64,1.05A.46.46,0,0,1,642.89,623Z" fill="#0071f2" data-primary="true"/>
<polygon points="660.03 275.82 702.08 280.16 712.75 214.52 672.97 208.19 660.03 275.82" fill="#e6e7e8"/>
<path d="M663.12,577.92l21.56-1.65V347.17L767.1,572l22.29-6s-36.65-179.25-52-226.79l-19.45-57.4-60.77-6.47S632.41,323.73,637,360.7c0,0,2.31,34.17,6.27,65.94Z" fill="#2f2e41" data-secondary="true"/>
<path d="M654.7,186.89s-1.65-5.11,5.28-9.73c0,0,10.56-4.63,4.95-12.55,0,0-6.27-8.75.83-14,0,0,7.26-6.6,2-11.88,0,0-10.73-7.27-2.15-17.83,0,0,24.43-22,38-15.52,0,0,13.37-4.78,19.64,15.19,0,0,.49,10.89,7.26,14.53,0,0,7.08,2.53,8.18,13.12a23.28,23.28,0,0,1-.28,6.4c-.37,2.23-.33,6.83,4.73,11.22a15.89,15.89,0,0,0,4.29,2.59c3.93,1.62,14.35,8.17,7.84,30.54,0,0-2.64,7.76-6.6,9.25Z" fill="#2f2e41" data-secondary="true"/>
<path d="M182.51,228.39a23.45,23.45,0,0,0-4.5-7l-3.7,2.23A40.14,40.14,0,0,0,164.67,212l2.52-2.81c-1.43-1.43-3.92-4.47-7.78-6a23.11,23.11,0,0,0-8.17-1.63l-.68,2.95a39.79,39.79,0,0,0-15.51-1.39c0-1.24,0-2.47,0-3.7a23.15,23.15,0,0,0-16.56,5.42l1.56,3A40.09,40.09,0,0,0,108,218l-2.51-2.17c-1.4,1.46-4.39,4-5.84,7.89A23.45,23.45,0,0,0,98.17,232l2.57.53a39.72,39.72,0,0,0-1,15.64l-3.39-.06c-.15,2-.81,5.89.56,9.8a23.16,23.16,0,0,0,4.13,7.24l3.87-2.06a39.89,39.89,0,0,0,9.59,11l-3.13,4c1.51,1.33,4.19,4.22,8.13,5.5a23.11,23.11,0,0,0,8.26,1.12l.57-3.47a39.93,39.93,0,0,0,10.94,1.53,40.36,40.36,0,0,0,4.42-.25c0,1.24,0,2.48,0,3.72,2,.13,5.89.77,9.8-.63a23.21,23.21,0,0,0,7.21-4.18l-2-3.69a40,40,0,0,0,11.48-9.6l3.09,3c1.48-1.36,4.63-3.71,6.33-7.5a23.09,23.09,0,0,0,2-8.09l-4.08-1.13a39.9,39.9,0,0,0,1.71-11.58,40.91,40.91,0,0,0-.25-4.45l4.64-.17C183.63,236.13,184.09,232.22,182.51,228.39Z" fill="#d1d3d4"/>
<path d="M541.48,451.54a26.5,26.5,0,0,0-5.14-8l-4.23,2.54a45.77,45.77,0,0,0-11-13.3l2.87-3.21c-1.62-1.63-4.47-5.11-8.88-6.85a26.69,26.69,0,0,0-9.34-1.86l-.77,3.37a45.65,45.65,0,0,0-17.73-1.59l.06-4.23a26.52,26.52,0,0,0-18.93,6.2l1.79,3.39a45.79,45.79,0,0,0-13.83,11.72l-2.88-2.48c-1.59,1.66-5,4.58-6.67,9a26.68,26.68,0,0,0-1.67,9.38l2.93.61A45.4,45.4,0,0,0,446.52,468a46.1,46.1,0,0,0,.42,6.14l-3.88-.07c-.16,2.3-.92,6.73.65,11.2a26.41,26.41,0,0,0,4.72,8.27l4.42-2.35a45.86,45.86,0,0,0,11,12.54l-3.58,4.52c1.73,1.53,4.79,4.82,9.29,6.29a26.43,26.43,0,0,0,9.44,1.28l.65-4a45.69,45.69,0,0,0,12.5,1.75,44.33,44.33,0,0,0,5.05-.29c0,1.42,0,2.84,0,4.25,2.29.15,6.73.88,11.19-.72a26.46,26.46,0,0,0,8.24-4.77l-2.28-4.22a45.75,45.75,0,0,0,13.12-11l3.52,3.45c1.7-1.55,5.3-4.25,7.24-8.57a26.66,26.66,0,0,0,2.26-9.25l-4.66-1.29a45.53,45.53,0,0,0,2-13.23,47.31,47.31,0,0,0-.29-5.08l5.3-.2C542.76,460.38,543.28,455.92,541.48,451.54Z" fill="#d1d3d4"/>
<rect x="399" y="51.54" width="178.47" height="106.49" rx="10.01" fill="#0071f2" data-primary="true"/>
<rect x="399" y="51.54" width="178.47" height="106.49" rx="10.01" fill="#fff" opacity="0.4"/>
<rect x="399" y="71.25" width="178.47" height="18.24" fill="#2f2e41" data-secondary="true"/>
<rect x="534.37" y="56.65" width="21.89" height="8.76" rx="4.38" fill="#fff"/>
<circle cx="564.47" cy="60.48" r="3.83" fill="#fff"/>
<rect x="535.28" y="100.43" width="27.18" height="25.17" rx="7.71" fill="#fff"/>
<rect x="492.78" y="137.28" width="32.65" height="5.65" rx="2.83" fill="#fff"/>
<rect x="532.55" y="137.28" width="32.65" height="5.65" rx="2.83" fill="#fff"/>
<circle cx="492.78" cy="468.08" r="21.39" opacity="0.2"/>
<rect x="213.96" y="92.49" width="254.29" height="538.86" rx="34.93" fill="#0071f2" data-primary="true"/>
<rect x="213.96" y="92.49" width="254.29" height="538.86" rx="34.93" fill="#fff" opacity="0.2"/>
<path d="M714.47,141.59a32.67,32.67,0,0,1-3,14c-3.52,7.41-9.76,12.33-16.87,12.33a15.64,15.64,0,0,1-4.73-.74c-8.72-2.81-15.19-13.2-15.19-25.59,0-14.53,8.92-26.32,19.92-26.32S714.47,127.06,714.47,141.59Z" fill="#f9b499"/>
<ellipse cx="716.66" cy="142.41" rx="3.82" ry="5.32" fill="#f9b499"/>
<path d="M713.37,139.72c-12.47-9.87-12.29-20.5-12.29-20.5-5,3.47-15.52,4-15.52,4-8.25,1.65-7.92,10.4-7.92,10.4,2.15,7.1-2.68,12.74-2.68,12.74L672,129.45l10.07-16.17,26.08-1,10.07,19.14-3.77,6.62A7.38,7.38,0,0,0,713.37,139.72Z" fill="#2f2e41" data-secondary="true"/>
<circle cx="718.07" cy="149.29" r="2.66" fill="#0071f2" data-primary="true"/>
<path d="M712.75,179.68l-6.12,36.84L688,225.27l-8.4-15.37,9.12-32,1.07-10.72a15.64,15.64,0,0,0,4.73.74c7.11,0,13.35-4.92,16.87-12.33a161.91,161.91,0,0,1,.65,23.88Z" fill="#f9b499"/>
<path d="M689.83,167.18l-.82,8.23s18,3.73,22.42-19.82C711.43,155.59,704.45,171.61,689.83,167.18Z" fill="#f7a48b"/>
<path d="M672,180.79l1.15,33.5-7.75,6.77,2.14,8.91-1.15,32.85,22.34-84.92S677.15,179.63,672,180.79Z" fill="#0071f2" data-primary="true"/>
<path d="M672,180.79l1.15,33.5-7.75,6.77,2.14,8.91-1.15,32.85,22.34-84.92S677.15,179.63,672,180.79Z" fill="#fff" opacity="0.4"/>
<path d="M710.87,357.07,745,345.85l-23.11-74.17,8.8-32.57,3.74,12.54s20.47,5.06,27.51,12.55l-14.08-69.77-20.49-9.2-14.61-5.55L698.2,268.15Z" fill="#0071f2" data-primary="true"/>
<polygon points="634.75 251.83 642.1 258.13 646.3 251.83 634.75 251.83" fill="#0071f2" data-primary="true"/>
<path d="M646.3,200.09s6.83-15.23,13.4-16.28l12.33-3,1.15,33.5-7.75,6.77,2.14,8.91-1.15,32.85s-3.48,7.92-6.68,30l-11.33,58.83-16.29-2.1,2.63-27.32s2-20.82,13.18-38.87c0,0,11.88-14.38,11-31.51Z" fill="#0071f2" data-primary="true"/>
<rect x="232.65" y="92.49" width="251.01" height="538.86" rx="12.85" fill="#2f2e41" data-secondary="true"/>
<polygon points="476.36 606.9 238.31 609.28 242.14 118.75 476.36 118.75 476.36 606.9" fill="#0071f2" data-primary="true"/>
<circle cx="355.72" cy="223.74" r="35.08" fill="#fff"/>
<circle cx="355.54" cy="210.1" r="11.27" fill="#0071f2" data-primary="true"/>
<path d="M336.45,241.73s19.09,10.55,38.72,0V234a6.36,6.36,0,0,0-1.92-4.56,13.42,13.42,0,0,0-9-3.71s-9.92-1.83-19.39.66a5.89,5.89,0,0,0-1.23.47,37,37,0,0,0-4.54,2.72,6.37,6.37,0,0,0-2.66,5.18Z" fill="#0071f2" data-primary="true"/>
<rect x="268.95" y="283.48" width="172.38" height="18.06" rx="9.03" fill="#fff"/>
<path d="M365.45,295H328.3a2.5,2.5,0,1,1,0-5h37.15a2.5,2.5,0,1,1,0,5Z" fill="#0071f2" data-primary="true"/>
<path d="M409.38,294.9H372.23a2.5,2.5,0,0,1,0-5h37.15a2.5,2.5,0,0,1,0,5Z" fill="#0071f2" data-primary="true"/>
<g opacity="0.2">
<path d="M365.45,295H328.3a2.5,2.5,0,1,1,0-5h37.15a2.5,2.5,0,1,1,0,5Z" fill="#fff"/>
<path d="M409.38,294.9H372.23a2.5,2.5,0,0,1,0-5h37.15a2.5,2.5,0,0,1,0,5Z" fill="#fff"/>
</g>
<rect x="268.95" y="313.67" width="172.38" height="18.06" rx="9.03" fill="#fff"/>
<circle cx="320.54" cy="322.7" r="3.24" fill="#0071f2" data-primary="true"/>
<circle cx="331.24" cy="322.7" r="3.24" fill="#0071f2" data-primary="true"/>
<circle cx="342.61" cy="322.7" r="3.24" fill="#0071f2" data-primary="true"/>
<circle cx="353.98" cy="322.7" r="3.24" fill="#0071f2" data-primary="true"/>
<circle cx="364.26" cy="322.7" r="3.24" fill="#0071f2" data-primary="true"/>
<circle cx="375.19" cy="322.7" r="3.24" fill="#0071f2" data-primary="true"/>
<circle cx="385.9" cy="322.7" r="3.24" fill="#0071f2" data-primary="true"/>
<circle cx="397.26" cy="322.7" r="3.24" fill="#0071f2" data-primary="true"/>
<circle cx="408.64" cy="322.7" r="3.24" fill="#0071f2" data-primary="true"/>
<g opacity="0.2">
<circle cx="320.54" cy="322.7" r="3.24" fill="#fff"/>
<circle cx="331.24" cy="322.7" r="3.24" fill="#fff"/>
<circle cx="342.61" cy="322.7" r="3.24" fill="#fff"/>
<circle cx="353.98" cy="322.7" r="3.24" fill="#fff"/>
<circle cx="364.26" cy="322.7" r="3.24" fill="#fff"/>
<circle cx="375.19" cy="322.7" r="3.24" fill="#fff"/>
<circle cx="385.9" cy="322.7" r="3.24" fill="#fff"/>
<circle cx="397.26" cy="322.7" r="3.24" fill="#fff"/>
<circle cx="408.64" cy="322.7" r="3.24" fill="#fff"/>
</g>
<rect x="315.79" y="350.52" width="76.73" height="18.88" rx="9.44" fill="#2f2e41" data-secondary="true"/>
<path d="M392.39,463.43c.07-1,.11-2,.11-3a40.88,40.88,0,0,0-81.75,0c0,.94,0,1.87.1,2.8l10.29-.05c-.08-.91-.13-1.82-.13-2.75a30.61,30.61,0,1,1,61.22,0c0,1,0,1.9-.13,2.84Z" fill="#fff"/>
<path d="M394.75,539.67c-13.83,1.26-29,2-45.34,2-14.43-.08-27.92-.81-40.35-2a6.67,6.67,0,0,1-4.6-1.91,6.48,6.48,0,0,1-1.91-4.6V468.08h98.71v65.08A6.52,6.52,0,0,1,394.75,539.67Z" fill="#fff"/>
<path d="M362.76,493.36a11.24,11.24,0,0,1-6.63,11.43v19a4.56,4.56,0,0,1-4.55,4.56h0a4.56,4.56,0,0,1-4.56-4.56v-19a11.25,11.25,0,1,1,15.74-11.43Z" fill="#0071f2" data-primary="true"/>
<path d="M54,385.24s73.83-15.4,109.14-59.29c0,0,44.94,47.82,107.31,59.29v96.3s10.09,86.38-108.23,149.81c0,0-105.94-46.19-108.22-152.7Z" fill="#e6e7e8"/>
<path d="M61.14,391.41S130.09,377,163.07,336c0,0,42,44.66,100.21,55.37v89.94S272.7,562,162.21,621.25c0,0-98.94-43.13-101.07-142.6Z" fill="#0071f2" data-primary="true"/>
<path d="M91.64,483.27s34.48,17.47,36.12,49.21l25.18,3.83s37.21-76.07,95.77-100.7l-5.48-10.39s-41.59.54-97.41,65.12c0,0,0-17.51-29-32.84Z" fill="#2f2e41" data-secondary="true"/>
<circle cx="139.3" cy="242.76" r="21.39" opacity="0.2"/>
<circle cx="428.38" cy="289.18" r="2.42" fill="#2f2e41" data-secondary="true"/>
<path d="M424.28,296a9.27,9.27,0,0,0,8.31,0v-1.66a1.39,1.39,0,0,0-.41-1,2.87,2.87,0,0,0-1.93-.79,10.7,10.7,0,0,0-4.16.14,1.48,1.48,0,0,0-.27.1,7.76,7.76,0,0,0-1,.58,1.38,1.38,0,0,0-.57,1.12Z" fill="#2f2e41" data-secondary="true"/>
<polygon points="698.2 268.15 712.75 179.69 727.36 185.23 712.75 226.34 714.47 237.93 698.2 268.15" fill="#0071f2" data-primary="true"/>
<polygon points="698.2 268.15 712.75 179.69 727.36 185.23 712.75 226.34 714.47 237.93 698.2 268.15" fill="#fff" opacity="0.4"/>
<path d="M698.2,243.62s54.27,9.57,63.73,20.58c0,0,5.57,20.3-7.19,20.52,0,0-4.54,1.51-13.84-3.68,0,0-29.5-14.92-44.71-26.39a12.94,12.94,0,0,1-10.88-2.81l-1.73-26.57S690.32,229.35,698.2,243.62Z" fill="#f9b499"/>
<path d="M595.26,201.67,608,251.83h84.41l-11.38-50.74a1.71,1.71,0,0,0-1.67-1.34H596.75A1.54,1.54,0,0,0,595.26,201.67Z" fill="#2f2e41" data-secondary="true"/>
<ellipse cx="638.55" cy="225" rx="5.28" ry="6" transform="translate(-37.22 183.67) rotate(-15.91)" fill="#0071f2" data-primary="true"/>
<path d="M594.14,223.92s-2.74-2.07-1.23-4.14a3.12,3.12,0,0,1,2.1-1.22l8.43-1.22a2.7,2.7,0,0,1,3,2,2.22,2.22,0,0,1-.67,2.2s4.73.79,1.42,4.73c0,0,4.41,4-.48,6,0,0,2.53,2.52-1.57,4.1l-5.27.77a2.32,2.32,0,0,1-2.6-1.64,2.27,2.27,0,0,1,.61-2.13s-4.74-1.26-1.9-5.05C596,228.31,592.09,228,594.14,223.92Z" fill="#f9b499"/>
<line x1="594.14" y1="223.92" x2="605.82" y2="221.53" fill="none" stroke="#f7a48b" stroke-miterlimit="10"/>
<line x1="596.03" y1="228.31" x2="607.24" y2="226.26" fill="none" stroke="#f7a48b" stroke-miterlimit="10"/>
<line x1="597.93" y1="233.36" x2="606.76" y2="232.26" fill="none" stroke="#f7a48b" stroke-miterlimit="10"/>
</svg>